<?xml version="1.0" encoding="UTF-8"?>
<svg xmlns="http://www.w3.org/2000/svg" id="a" viewBox="0 0 500 500" version="1.2" baseProfile="tiny-ps"><defs><style>.b{fill:#faa533;stroke:#0574ba;stroke-miterlimit:10;stroke-width:10px;}.c{fill:#09a6e0;stroke-width:0px;}</style></defs><rect class="c" width="500" height="500"/><path class="b" d="m138.2,318.6c-15.04.14-22.2-9.27-14.8-23.6,5.6-10.16,16.98-17.78,27.2-22.4-12.78-50.66-22.25-89.03-35.4-129.6-2.92-6.93-1.95-8.66.8-14.4,6.69-11.57,25.51-20.16,36.2-9.6,7.51,1.16,39.45,132.76,42.8,139.6,32.39-7.36,70.03-14.1,99.6-27.2-9.15-35.82-15.34-60.32-21.6-87.4-4.63-20.09-6.52-40.06,10.6-52.8,11.01-7,30.71-3.24,33,12.2,1.26,6.66-.2,17.79,1.6,24.4,8.09,30.26,15.77,56.37,33.6,79.6,6.72,9.32,20.14,25.97,13.4,38.6-2.2,4.31-8.56,7.05-10.2,11,4.98,17.57,13.19,40.52,20.8,59,3.69,12.72,17.11,36.69,7,47.4-9.91,8.18-27.49,14.1-39.6,8.6-9.41-6.01-8.39-17.82-12.2-29.6-6.08-22.85-14.3-49.42-22-71l-96.4,30c2.14,27.69,24.73,80.22-10.8,94.4,0,0-14.4,4-14.4,4-7.06-20.12-11.07-41.13-16.4-59.2-6.63-22.31-11.41-24.52-32.8-22Z"/></svg>
