<?xml version="1.0" encoding="UTF-8"?>
<svg xmlns="http://www.w3.org/2000/svg" id="Layer_1" viewBox="0 0 500 500" version="1.2" baseProfile="tiny-ps"><rect width="500" height="500" style="fill:#09a6e0; stroke-width:0px;"/><path d="m138.2,318.6c-3.47,0-7.27-.8-11.4-2.4-4.13-1.6-6.2-4.93-6.2-10,0-4,.94-7.73,2.8-11.2,1.86-3.46,4.33-6.6,7.4-9.4,3.06-2.8,6.33-5.33,9.8-7.6,3.46-2.26,6.8-4.06,10-5.4-7.2-29.06-13.2-52.4-18-70-4.8-17.6-8.6-31.13-11.4-40.6-2.8-9.46-4.8-15.8-6-19s-1.8-4.93-1.8-5.2c0-3.2.87-6.26,2.6-9.2,1.74-2.93,3.94-5.46,6.6-7.6,2.66-2.13,5.6-3.8,8.8-5s6.13-1.8,8.8-1.8c4.8,0,8.8,1.6,12,4.8s5.46,7.07,6.8,11.6l36,128c17.33-3.73,34.73-7.66,52.2-11.8,17.46-4.13,33.26-9.26,47.4-15.4-6.14-24-10.87-42.8-14.2-56.4-3.34-13.6-5.8-23.93-7.4-31-1.6-7.06-2.54-11.86-2.8-14.4-.27-2.53-.4-4.6-.4-6.2,0-3.73.4-7.73,1.2-12,.8-4.26,2.2-8.13,4.2-11.6,2-3.46,4.8-6.33,8.4-8.6,3.6-2.26,8.06-3.4,13.4-3.4,4.26,0,8.33,1.27,12.2,3.8,3.86,2.54,6.33,6.47,7.4,11.8.53,3.47.73,7.54.6,12.2-.14,4.67.2,8.74,1,12.2,3.2,12.27,6.26,22.74,9.2,31.4,2.93,8.67,5.8,16,8.6,22s5.53,11.07,8.2,15.2c2.66,4.14,5.2,7.8,7.6,11,2.93,3.74,6.2,8.54,9.8,14.4,3.6,5.87,5.4,11.87,5.4,18,0,2.4-.6,4.47-1.8,6.2-1.2,1.74-2.6,3.34-4.2,4.8-1.6,1.47-3,2.67-4.2,3.6-1.2.94-1.8,1.8-1.8,2.6,1.33,4.8,3.4,11.4,6.2,19.8,2.8,8.4,5.93,17.14,9.4,26.2,1.6,4,3.33,8.34,5.2,13,1.86,4.67,3.6,9.4,5.2,14.2,1.6,4.8,2.93,9.34,4,13.6,1.06,4.27,1.6,8,1.6,11.2s-1.27,6-3.8,8.4c-2.54,2.4-5.67,4.4-9.4,6-3.74,1.6-7.6,2.8-11.6,3.6s-7.47,1.2-10.4,1.2-5.67-.74-8.2-2.2c-2.54-1.47-4.87-4.2-7-8.2-1.34-5.86-3.07-13-5.2-21.4-2.14-8.4-4.54-16.86-7.2-25.4-2.67-8.53-5.27-16.86-7.8-25-2.54-8.13-4.87-15-7-20.6l-96.4,30c.26,3.74.93,7.94,2,12.6,1.06,4.67,2.06,9.67,3,15,.93,5.34,1.8,10.8,2.6,16.4.8,5.6,1.2,11.07,1.2,16.4,0,8-1.54,15.13-4.6,21.4-3.07,6.26-8.07,10.46-15,12.6l-14.4,4c-4-12-7.2-23.07-9.6-33.2-2.4-10.13-4.67-18.8-6.8-26-2.14-7.2-4.54-12.8-7.2-16.8-2.67-4-6.27-6-10.8-6-2.4,0-4.87.14-7.4.4-2.54.27-5,.4-7.4.4Z" style="fill:#faa533; stroke:#0574ba; stroke-miterlimit:10; stroke-width:10px;"/><title>Hearsch Family</title></svg>
